<svg xmlns="http://www.w3.org/2000/svg" width="450" height="450" viewBox="0 0 450 450">
    <g fill="none" fill-rule="evenodd">
        <path fill="#2F8AE3" d="M225 .217c46.484 0 92.967 14.33 132.27 42.992L225 225.466V.217z"/>
        <path fill="#35C25E" d="M225 449.77V224.52L357.27 42.263A226.75 226.75 0 0 1 384.1 65.245c87.868 87.965 87.868 230.585 0 318.55C340.165 427.779 282.583 449.77 225 449.77z"/>
        <path fill="#FD7C29" d="M225 449.485c-57.583 0-115.165-21.991-159.099-65.974-79.4-79.488-87.052-203.603-22.956-291.693L225 224.236v225.249z"/>
        <path fill="#FB4C55" d="M43.5 92.581a226.867 226.867 0 0 1 22.956-26.857c26.012-26.04 56.808-44.373 89.556-54.995l69.543 214.27L43.5 92.58z"/>
        <path fill="#D72B6C" d="M156 10.754A225.221 225.221 0 0 1 211.416.217l14.128 224.807L156 10.754z"/>
        <path fill="#495057" fill-rule="nonzero" d="M211.5.659a226.13 226.13 0 0 1 14.128-.442v225.25L211.5.658z"/>
    </g>
</svg>
